<?xml version="1.0" encoding="UTF-8"?><svg id="Warstwa_1" xmlns="http://www.w3.org/2000/svg" viewBox="0 0 110.317 388.438"><defs><style>.cls-1{fill:#fff;}</style></defs><path class="cls-1" d="M52.152,26.08l.002-2.008-2.01.004.005-2.01-2.01.004v-4.015s2.01.004,2.01.004l-.005-2.01,2.015-.228-.005-5.788-2.01.004.005-2.01-2.01.004v-4.015l2.01.004-.005-2.01,2.01.005-.004-2.01,3.782-.005.233,2.015-2.01-.004.005,2.01-2.01-.004v4.015s2.01-.004,2.01-.004l-.005,2.01,2.01-.004.005,5.788-2.015.228.005,2.01-2.01-.004-.005,3.783,2.015.228-.005,2.01,2.01-.005-.002,2.008h8.022l-.002,2.008,2.008-.002v-6.017l2.008.002-.004-2.01,4.015.005-.004-2.01,2.008.002v-10.028l4.013.002.229-2.015,1.776.005-.004,2.01,2.01-.004v2.01s-4.016-.004-4.016-.004l.004,2.01-2.01-.004v2.01s2.008-.002,2.008-.002v6.017l-4.013-.002.004,2.01-4.015-.004v8.027s2.01-.004,2.01-.004l-.005,2.01,2.01-.005-.005,2.01,2.01-.005-.004,2.01h4.015s-.004-2.01-.004-2.01l2.01.005-.004-2.01,10.032.004-.004-4.015,2.01.004-.004-4.015h6.021s-.004,2.01-.004,2.01l2.01-.004-.002,2.008h-6.017l.002,2.008-2.01-.004.005,4.015-2.01-.004.002,2.008h-6.017l-.232-2.013-1.776.005.004,2.01-2.008-.002v10.028h2.006v6.017l2.008.002-.004-2.01,2.01.005-.004-2.01,3.783-.005.228,2.015,2.01-.005-.002,2.008h6.017l-.002-2.008,4.015.005-.004-2.01h2.01s-.004,2.01-.004,2.01l2.01-.005-.005,2.01,2.01-.004v4.015s-2.01,0-2.01,0l.004-2.01-2.01.005-.228-2.015-3.783.005.004,2.01-2.01-.005-.228,2.015-5.788-.005.004-2.01-2.01.005.004-2.01h-4.015l.004,2.01-2.01-.005.005,2.01-2.008-.002v8.022l-2.013.232.005,1.776,2.01-.004-.004,2.01h2.01s-.004-2.01-.004-2.01l4.013.002v6.017l2.008-.002-.002,2.008h10.028l-.002,4.013,2.01-.004.005,3.782-2.015.233.004-2.01-2.01.005.004-2.01-10.032.004.004-4.015-2.01.004.002-4.013h-8.022l.002,2.008-2.01-.004.005,4.015-2.01-.004.005,2.01-2.01-.004v2.01l2.01-.004-.005,2.01,2.01-.004-.004,10.032,4.015-.004-.004,2.01,4.015-.004v6.021s-2.01-.004-2.01-.004l.004,2.01-2.008-.002v-6.017l-2.008.002.004-2.01-4.015.005.004-2.01-2.01.004v-4.015s2.015-.229,2.015-.229l-.005-3.783-2.01.004.002-2.008h-8.022v2.006h-8.022l-.002,2.008,2.01-.004-.005,2.01,2.01-.004.005,3.783-2.015.228.005,2.01-2.008-.002v6.017l2.008-.002-.005,4.015,2.01-.004v2.01s-2.01-.004-2.01-.004l.005,2.01-2.01-.005.004,2.01h-4.015s0-2.01,0-2.01l2.01.004-.005-2.01,2.015-.228-.005-3.783-2.01.004.005-2.01-2.015-.228.005-5.788,2.01.004-.005-2.01,2.01.004v-4.015l-2.01.004.005-2.01-2.01.005.002-2.008h-10.028v6.017l-4.013-.002.004,2.01-4.015-.004.004,10.032-4.015-.004.004,2.01-4.02-.234.005-1.776,2.01.004-.004-2.01,4.015.004v-4.015s-2.008.002-2.008.002v-6.017l4.013.002-.004-2.01,4.013.002v-8.022l-2.008.002.004-2.01-4.015.005.004-2.01-2.01.005.004-2.01h-2.01s.004,2.01.004,2.01l-2.01-.005.002,2.008h-10.028v6.017l-2.008-.002.002,2.008h-6.017l.002-2.008-2.01.004.002-2.008h6.017l-.002-2.008,2.01.004-.005-4.015,2.01.004-.004-2.01h2.01s-.002,2.008-.002,2.008h6.017l-.002-2.008,2.008.002v-8.022h-2.006v-6.017l-4.013-.002.004,2.01h-4.015s.004-2.01.004-2.01l-2.01.005.004-2.01h-6.021l.004,2.01-2.01-.005.004,2.01h-4.015l.004-2.01-2.01.005.005-2.01-2.01.004-.005-1.776,4.02-.234-.004,2.01h4.015s-.004-2.01-.004-2.01l2.01.005-.004-2.01h6.021l-.004,2.01,2.01-.005-.004,2.01h4.015l-.004-2.01,2.01.005-.005-2.01,2.008.002v-8.022l2.008.002-.002-2.008h-8.022l.002-4.013-2.01.004.004-4.015-10.032.004.004-4.015-2.01.004-.005-3.782,2.015-.233-.004,2.01,2.01-.004-.002,4.013h6.017l-.002-2.008h4.015s-.004,4.016-.004,4.016l2.01-.004-.004,4.015h8.027s-.004-2.01-.004-2.01l2.01.005-.005-2.01,2.01.005-.005-2.01,2.01.004v-4.015s-4.014.002-4.014.002v-10.028l-2.008.002.004-2.01-4.015.005.004-2.01-2.008.002v-6.017l2.008.002-.004-2.01,2.008.002v6.017l2.008-.002-.004,2.01,4.015-.005-.004,2.01,2.01-.004v2.01s-2.008-.002-2.008-.002v6.017l2.008-.002-.002,2.008h10.028v-2.006h6.017ZM60.175,28.085h-10.028v2.006h-6.017l.002,2.008-4.015-.005.004,2.01-2.01-.005.005,2.01-2.01-.005.005,2.01-2.01-.005.005,2.01-2.01-.004.005,4.015-2.008-.002v6.017h-2.006v12.034l2.008-.002-.005,4.015,2.01-.004-.005,4.015,2.01-.004-.005,2.01,2.01-.005-.005,2.01,2.01-.005-.005,2.01,2.01-.005-.004,2.01,4.015-.005-.004,2.01,4.015-.005-.002,2.008h14.039l-.002-2.008,4.015.005-.004-2.01,4.015.005-.004-2.01,2.01.005-.005-2.01,2.01.005-.005-2.01,2.01.005-.005-2.01,2.01.004-.005-4.015,2.01.004-.005-4.015,2.008.002v-14.039l-2.008.002.005-4.015-2.01.004.005-4.015-2.01.004.005-2.01-2.01.005.005-2.01-2.01.005.005-2.01-2.01.005.004-2.01-4.015.005.002-2.008h-6.017v-2.006Z"/><path class="cls-1" d="M58.169,44.13v2.006h6.017l-.002,2.008,4.015-.005-.004,2.01,2.01-.005-.005,2.01,2.01-.005-.005,2.01,2.01-.004v2.01l-2.01-.004.005,2.01-2.01-.005.005,2.01-2.01-.005.005,2.01-2.01-.005.002,2.008h-6.017v2.006h-10.028v-2.006h-6.017l.002-2.008-2.01.005.005-2.01-2.01.005.005-2.01-2.01.005.005-2.01-2.01.004v-2.01l2.01.004-.005-2.01,2.01.005-.005-2.01,2.01.005-.004-2.01,4.015.005-.002-2.008h6.017v-2.006h6.017ZM62.18,48.141h-14.039l.002,2.008-4.015-.005.004,2.01-2.01-.005.005,2.01-2.01-.004-.005,1.776,2.015.229-.005,2.01,2.01-.005-.004,2.01,4.015-.005-.002,2.008h14.039l-.002-2.008,4.015.005-.004-2.01,2.01.005-.005-2.01,2.01.004.005-1.776-2.015-.229.005-2.01-2.01.005.004-2.01-4.015.005.002-2.008Z"/><path class="cls-1" d="M58.169,50.147l-.002,2.008,2.008-.002v6.017l-2.008-.002.002,2.008h-6.017l.002-2.008-2.008.002v-6.017l2.008.002-.002-2.008h6.017ZM56.166,54.156h-2.01v2.01h2.01v-2.01Z"/><path class="cls-1" d="M58.167,354.061v2.006h6.017l-.002,2.008,4.015-.005-.004,2.01,2.01-.005-.005,2.01,2.01-.005-.005,2.01,2.01-.004v2.01l-2.01-.004.005,2.01-2.01-.005.005,2.01-2.01-.005.005,2.01-2.01-.005.002,2.008h-6.017v2.006h-10.028v-2.006h-6.017l.002-2.008-2.01.005.005-2.01-2.01.005.005-2.01-2.01.005.005-2.01-2.01.004v-2.01l2.01.004-.005-2.01,2.01.005-.005-2.01,2.01.005-.004-2.01,4.015.005-.002-2.008h6.017v-2.006h6.017ZM62.178,358.072h-14.039l.002,2.008-4.015-.005.004,2.01-2.01-.005.005,2.01-2.01-.004-.005,1.776,2.015.229-.005,2.01,2.01-.005-.004,2.01,4.015-.005-.002,2.008h14.039l-.002-2.008,4.015.005-.004-2.01,2.01.005-.005-2.01,2.01.004.005-1.776-2.015-.229.005-2.01-2.01.005.004-2.01-4.015.005.002-2.008Z"/><path class="cls-1" d="M58.167,360.078l-.002,2.008,2.008-.002v6.017l-2.008-.002.002,2.008h-6.017l.002-2.008-2.008.002v-6.017l2.008.002-.002-2.008h6.017ZM56.163,364.087h-2.01v2.01h2.01v-2.01Z"/><path class="cls-1" d="M73.539,184.317l-.003,2.3,2.3-.003v11.486h9.189v2.297h9.189v2.297h6.892l-.003,2.3,2.3-.003v9.189h-2.297v9.189h-2.297v9.189h-2.297v6.892h-2.297v9.189h-2.297v9.189l-2.3-.003.003,2.3h-9.189v-2.297h-9.189v-2.297h-9.189v-2.297h-13.784v2.297h-9.189v2.297h-9.189v2.297h-9.189l.003-2.3-2.3.003v-9.189h-2.297v-6.892h-2.297v-9.189h-2.297v-9.189h-2.297v-6.892h-2.297v-11.486l2.3.003-.003-2.3h6.892v-2.297h9.189v-2.297h9.189v-11.486l2.3.003-.003-2.3h36.757ZM50.566,209.587c.015-1.527-.011-3.07-.003-4.597l2.303.005-.005-2.303h4.599s-.005,2.303-.005,2.303l2.302-.005-.005,2.303,2.3-.003v-6.892l2.3.002-.003-4.597h9.189v-9.178h-36.757v52.827l2.3-.003-.003,2.3h13.784v-6.892h2.297v-9.189l-2.3.003.005-2.302-2.302.005.005-2.302-2.302.005.005-2.302-2.303.005v-6.897s2.303.005,2.303.005l-.005-2.303c.763-.02,1.535.028,2.3.003-.015,1.527.011,3.07.003,4.597l-2.303-.005v2.302s2.303-.005,2.303-.005l-.005,2.302,2.302-.005-.005,2.303h4.599s-.005-4.6-.005-4.6l2.3.002v-6.892l-2.3.003-.261-2.308-4.333.005.005,2.303c-.763.02-1.535-.028-2.3-.003ZM73.539,198.101h-6.892l.003,4.597-2.3-.002v9.189h-2.297v9.189h-2.297v9.189h-2.297v6.892h-2.297v9.189l-2.3-.002v2.302s4.6-.005,4.6-.005l-.002,2.3h6.892v2.297h9.189v2.297h9.189l-.002,2.3h4.599s-.005-4.6-.005-4.6l2.3.002v-6.892h2.297v-9.189h2.297v-9.189h2.297v-6.892h2.297v-9.189l2.305-.264-.005-4.332-2.303.005.003-2.3h-9.189v-2.297h-6.892v-2.297h-9.189v-2.297ZM34.485,200.398h-6.892v2.297h-6.892v2.297h-9.189l.003,2.3-2.303-.005-.005,4.332,2.305.264v9.189h2.297v9.189h2.297v6.892h2.297v9.189h2.297v9.189l2.3-.003-.005,2.303,4.332.005.264-2.305h9.189v-2.297h6.892v-2.297h6.892v-6.892h-13.784l.003-2.3-2.3.003v-6.892l-4.597-.003-.263,2.308-2.034-.005.005-2.303-4.597.003v-11.486l2.3.003-.005-2.302,2.303.005-.003-4.597h6.892v-16.081ZM25.296,225.668v6.892h6.892l-.003-2.3,2.3.003v-9.189l-2.3.003.005-2.303h-2.302s.005,4.6.005,4.6l-2.303-.005.005,2.302-2.3-.003Z"/><path class="cls-1" d="M85.026,218.776l-.003,2.3,2.302-.005-.005,2.302,2.303-.005v4.599s-2.303-.005-2.303-.005l.005,4.599-4.599-.005.005,2.303-4.599-.005-.262,2.308-4.333-.005.005-2.303-2.303.005.005-4.599-2.303.005.005-2.302-2.303.005v-6.897l2.303.005-.005-2.302,2.302.005-.005-2.303,4.332-.005.264,2.305h9.189ZM78.134,221.074h-6.892v6.892l2.3-.002-.003,4.597h6.892l-.002-2.3,4.597.003v-6.892h-6.892v-2.297Z"/><path class="cls-1" d="M91.255,340.309v2.188H19.062v43.753h72.193v-43.753h2.188v45.941H16.875v-48.128h74.38Z"/><polygon class="cls-1" points="25.625 349.06 25.625 379.687 84.692 379.687 84.692 351.247 28.2 351.25 28.2 349.057 86.88 349.06 86.88 381.875 23.438 381.875 23.438 349.06 25.625 349.06"/><path class="cls-1" d="M16.027,154.767c1.53.071,3.09-.051,4.622,0v-11.554h2.311v-9.243h2.311v18.487l2.314-.003-.005,2.316c1.532-.053,3.093.068,4.624-.003.025-.769-.024-1.546-.003-2.313h2.316s0,2.316,0,2.316c-.767.028-1.546-.038-2.313-.003-.025.769.023,1.546.003,2.313l-2.316-.005.005,4.626-2.316-.005.005,2.316-2.316-.005.005,2.316-2.047.005-.264-2.321-2.316.005.005-2.316-2.316.005.005-2.316-2.316.005c-.048-1.533.073-3.093.003-4.624-.768-.035-1.547.031-2.313.003v-2.316s2.316,0,2.316,0c.028.767-.038,1.546-.003,2.313Z"/><path class="cls-1" d="M76.109,154.767c1.531.071,3.092-.05,4.624.002l-.005-4.626,2.314.002v-13.865h2.311v9.243h2.311v9.243c1.532-.051,3.092.071,4.622,0,.025-.769-.024-1.546-.003-2.313h2.316s0,2.316,0,2.316c-.767.028-1.546-.038-2.313-.003-.025.769.023,1.546.003,2.313l-2.316-.005.005,4.626-2.316-.005.005,2.316-2.316-.005-.264,2.321-2.047-.005.005-2.316-2.316.005.005-2.316-2.316.005.005-4.626-2.316.005c-.02-.768.028-1.544.003-2.313-.768-.035-1.547.031-2.313.003v-2.316s2.316,0,2.316,0c.021.768-.028,1.544-.003,2.313Z"/><polygon class="cls-1" points="55.312 131.658 55.312 145.524 59.936 145.526 59.931 143.21 62.247 143.21 62.247 147.837 59.931 147.832 59.936 150.148 57.62 150.143 57.625 152.459 55.309 152.454 55.044 157.086 52.998 157.081 53.003 154.765 50.687 154.77 50.692 152.454 48.376 152.459 48.382 147.832 46.065 147.837 46.071 145.521 43.755 145.526 44.023 143.205 48.381 143.21 48.377 145.526 53.001 145.524 53.001 131.658 55.312 131.658"/><polygon class="cls-1" points="61.086 311.785 63.402 311.79 63.402 307.164 61.086 307.163 61.091 309.48 56.467 309.477 56.467 281.996 54.156 281.996 54.156 292.883 51.845 292.883 51.845 309.477 51.845 309.477 49.532 309.48 49.537 307.163 45.179 307.158 44.91 309.479 47.226 309.474 47.221 311.79 49.537 311.785 49.532 316.412 51.848 316.407 51.843 318.723 54.159 318.718 54.154 321.034 56.2 321.039 56.464 316.407 58.78 316.412 58.775 314.096 61.091 314.101 61.086 311.785"/></svg>