<?xml version="1.0" encoding="UTF-8"?>
<svg id="Warstwa_1" xmlns="http://www.w3.org/2000/svg" version="1.1" viewBox="0 0 100.1 66.8">
  <!-- Generator: Adobe Illustrator 29.8.2, SVG Export Plug-In . SVG Version: 2.1.1 Build 3)  -->
  <path d="M33.4,63.4v-3.3h-6.7v-6.7h-6.7V13.4h6.7v-6.7h6.7V0h13.4v66.8h-13.4v-3.3h0ZM6.7,50.1v-3.3H0v-26.7h6.7v-6.7h6.7v40.1h-6.7v-3.3h0ZM53.4,40.1v6.7h6.7v-6.7h-6.7ZM60.1,46.8v6.7h13.4v-6.7h-13.4ZM80.1,20v-6.7h-6.7v20.1h-13.4v6.7h13.4v6.7h6.7v-13.4h0v-6.7h6.7v-6.7h-6.7ZM86.8,26.7v6.6h0v6.7h6.7v-6.6h0v-6.7h-6.7Z"/>
</svg>